<?xml version="1.0" encoding="UTF-8"?>
<svg xmlns="http://www.w3.org/2000/svg" viewBox="0 0 1024 1024"><path fill="#fff" d="M461.74 682.02c-21.64 0-40.06-4.43-55.26-13.28-15.2-8.85-26.74-21.68-34.6-38.5-7.87-16.81-11.8-37.02-11.8-60.63V379.42h109.98v166.05c0 14.85 3.49 26.56 10.46 35.14 6.98 8.59 17.35 12.88 31.12 12.88 6.44 0 12.25-1.16 17.44-3.49 5.18-2.32 9.61-5.63 13.28-9.93 3.67-4.29 6.44-9.34 8.32-15.15 1.88-5.81 2.81-12.21 2.81-19.18V379.42h109.99v296.16H553.49v-54.99h-2.14c-4.83 13.24-11.4 24.46-19.72 33.66-8.32 9.21-18.29 16.14-29.91 20.79-11.63 4.65-24.95 6.98-39.97 6.98z"/><path fill="#fff" d="M511.77 850.07c-186.26 0-337.79-151.53-337.79-337.79S325.51 174.49 511.77 174.49s337.79 151.53 337.79 337.8-151.53 337.79-337.79 337.79zm0-583.35c-135.4 0-245.56 110.16-245.56 245.56s110.16 245.56 245.56 245.56 245.56-110.16 245.56-245.56-110.16-245.56-245.56-245.56z"/></svg>
